<mxfile host="Electron" modified="2024-09-29T16:21:09.621Z" agent="Mozilla/5.0 (Windows NT 10.0; Win64; x64) AppleWebKit/537.36 (KHTML, like Gecko) draw.io/24.1.0 Chrome/120.0.6099.109 Electron/28.1.0 Safari/537.36" etag="_FO6DQQZkcz3Jo0qj1oc" version="24.1.0" type="device">
  <diagram name="Sheet 1" id="noxEhjXfcJPRch1m8VZ3">
    <mxGraphModel dx="1418" dy="820" grid="1" gridSize="1.9685" guides="1" tooltips="1" connect="1" arrows="1" fold="1" page="1" pageScale="1" pageWidth="827" pageHeight="1169" math="0" shadow="0">
      <root>
        <mxCell id="0" />
        <mxCell id="1" parent="0" />
        <mxCell id="JBeKq6UBt9uG4QoYx59_-4" value="" style="rounded=0;whiteSpace=wrap;html=1;fillColor=none;strokeWidth=1;" parent="1" vertex="1">
          <mxGeometry x="39.37" y="39.37" width="748.03" height="1090.63" as="geometry" />
        </mxCell>
        <mxCell id="JBeKq6UBt9uG4QoYx59_-16" value="" style="endArrow=none;html=1;rounded=0;curved=0;endSize=6;targetPerimeterSpacing=0;jumpSize=6;strokeColor=default;exitX=0.5;exitY=0.018;exitDx=0;exitDy=0;exitPerimeter=0;strokeWidth=1;" parent="1" source="JBeKq6UBt9uG4QoYx59_-4" edge="1">
          <mxGeometry width="50" height="50" relative="1" as="geometry">
            <mxPoint x="413.37" y="32.68" as="sourcePoint" />
            <mxPoint x="413.37" y="19.68" as="targetPoint" />
          </mxGeometry>
        </mxCell>
        <mxCell id="JBeKq6UBt9uG4QoYx59_-18" value="" style="endArrow=none;html=1;rounded=0;entryX=0.026;entryY=0.5;entryDx=0;entryDy=0;entryPerimeter=0;strokeWidth=1;" parent="1" target="JBeKq6UBt9uG4QoYx59_-4" edge="1">
          <mxGeometry width="50" height="50" relative="1" as="geometry">
            <mxPoint x="19.69" y="584.67" as="sourcePoint" />
            <mxPoint x="27.69" y="584.67" as="targetPoint" />
          </mxGeometry>
        </mxCell>
        <mxCell id="JBeKq6UBt9uG4QoYx59_-20" value="" style="endArrow=none;html=1;rounded=0;exitX=0.974;exitY=0.5;exitDx=0;exitDy=0;exitPerimeter=0;strokeWidth=1;" parent="1" source="JBeKq6UBt9uG4QoYx59_-4" edge="1">
          <mxGeometry width="50" height="50" relative="1" as="geometry">
            <mxPoint x="797" y="584.68" as="sourcePoint" />
            <mxPoint x="807" y="584.68" as="targetPoint" />
          </mxGeometry>
        </mxCell>
        <mxCell id="JBeKq6UBt9uG4QoYx59_-23" value="" style="endArrow=none;html=1;rounded=0;entryX=1;entryY=0.75;entryDx=0;entryDy=0;exitX=0;exitY=0.75;exitDx=0;exitDy=0;strokeWidth=1;" parent="1" edge="1">
          <mxGeometry width="50" height="50" relative="1" as="geometry">
            <mxPoint x="39.3" y="944.8825000000002" as="sourcePoint" />
            <mxPoint x="787.49" y="944.8825000000002" as="targetPoint" />
          </mxGeometry>
        </mxCell>
        <mxCell id="JBeKq6UBt9uG4QoYx59_-25" value="" style="endArrow=none;html=1;rounded=0;entryX=1;entryY=0.75;entryDx=0;entryDy=0;exitX=0;exitY=0.75;exitDx=0;exitDy=0;strokeWidth=1;" parent="1" edge="1">
          <mxGeometry width="50" height="50" relative="1" as="geometry">
            <mxPoint x="39.3" y="984.2510000000001" as="sourcePoint" />
            <mxPoint x="787.49" y="984.2510000000001" as="targetPoint" />
          </mxGeometry>
        </mxCell>
        <mxCell id="VQGSf6ayIFre-QUfzGoe-1" value="" style="endArrow=none;html=1;rounded=0;strokeWidth=1;" parent="1" edge="1">
          <mxGeometry width="50" height="50" relative="1" as="geometry">
            <mxPoint x="547.24" y="1130" as="sourcePoint" />
            <mxPoint x="547.24" y="944.9" as="targetPoint" />
          </mxGeometry>
        </mxCell>
        <mxCell id="VQGSf6ayIFre-QUfzGoe-2" value="" style="endArrow=none;html=1;rounded=0;strokeWidth=1;" parent="1" edge="1">
          <mxGeometry width="50" height="50" relative="1" as="geometry">
            <mxPoint x="307.08849999999995" y="1129.9985" as="sourcePoint" />
            <mxPoint x="307.08849999999995" y="944.9" as="targetPoint" />
          </mxGeometry>
        </mxCell>
        <mxCell id="VQGSf6ayIFre-QUfzGoe-3" value="" style="endArrow=none;html=1;rounded=0;entryX=1;entryY=0.75;entryDx=0;entryDy=0;exitX=0;exitY=0.75;exitDx=0;exitDy=0;strokeWidth=1;" parent="1" edge="1">
          <mxGeometry width="50" height="50" relative="1" as="geometry">
            <mxPoint x="307.1" y="1023.6195" as="sourcePoint" />
            <mxPoint x="787.5" y="1023.6195" as="targetPoint" />
          </mxGeometry>
        </mxCell>
        <mxCell id="VQGSf6ayIFre-QUfzGoe-4" value="" style="endArrow=none;html=1;rounded=0;entryX=1;entryY=0.75;entryDx=0;entryDy=0;exitX=0;exitY=0.75;exitDx=0;exitDy=0;strokeWidth=1;" parent="1" edge="1">
          <mxGeometry width="50" height="50" relative="1" as="geometry">
            <mxPoint x="547.2" y="1090.548" as="sourcePoint" />
            <mxPoint x="787.5" y="1090.548" as="targetPoint" />
          </mxGeometry>
        </mxCell>
        <mxCell id="VQGSf6ayIFre-QUfzGoe-5" value="" style="endArrow=none;html=1;rounded=0;strokeWidth=1;" parent="1" edge="1">
          <mxGeometry width="50" height="50" relative="1" as="geometry">
            <mxPoint x="586.6084999999999" y="1129.9985" as="sourcePoint" />
            <mxPoint x="586.6084999999999" y="1090.5" as="targetPoint" />
          </mxGeometry>
        </mxCell>
        <mxCell id="VQGSf6ayIFre-QUfzGoe-6" value="" style="endArrow=none;html=1;rounded=0;strokeWidth=1;" parent="1" edge="1">
          <mxGeometry width="50" height="50" relative="1" as="geometry">
            <mxPoint x="728.347" y="1129.9969999999998" as="sourcePoint" />
            <mxPoint x="728.347" y="1090.4985" as="targetPoint" />
          </mxGeometry>
        </mxCell>
        <mxCell id="VQGSf6ayIFre-QUfzGoe-7" value="" style="endArrow=none;html=1;rounded=0;strokeWidth=1;" parent="1" edge="1">
          <mxGeometry width="50" height="50" relative="1" as="geometry">
            <mxPoint x="173.22699999999986" y="984.3" as="sourcePoint" />
            <mxPoint x="173.22699999999986" y="944.8784999999999" as="targetPoint" />
          </mxGeometry>
        </mxCell>
        <mxCell id="VQGSf6ayIFre-QUfzGoe-9" value="&lt;font face=&quot;Verdana&quot; style=&quot;font-size: 8px;&quot;&gt;Currency&lt;/font&gt;" style="text;html=1;align=left;verticalAlign=middle;whiteSpace=wrap;rounded=0;fillColor=none;fontStyle=1" parent="1" vertex="1">
          <mxGeometry x="41.339999999999996" y="944.88" width="25.59" height="12.29" as="geometry" />
        </mxCell>
        <mxCell id="VQGSf6ayIFre-QUfzGoe-10" value="&lt;font face=&quot;Verdana&quot; style=&quot;font-size: 8px;&quot;&gt;Prices variation&lt;/font&gt;" style="text;html=1;align=left;verticalAlign=middle;whiteSpace=wrap;rounded=0;fontStyle=1" parent="1" vertex="1">
          <mxGeometry x="175.2" y="944.88" width="78.74" height="12.29" as="geometry" />
        </mxCell>
        <mxCell id="VQGSf6ayIFre-QUfzGoe-11" value="&lt;font face=&quot;Verdana&quot;&gt;&lt;span style=&quot;font-size: 8px;&quot;&gt;Conversion rate&lt;/span&gt;&lt;/font&gt;" style="text;html=1;align=left;verticalAlign=middle;whiteSpace=wrap;rounded=0;fontStyle=1" parent="1" vertex="1">
          <mxGeometry x="309.06" y="944.88" width="90.55" height="12.29" as="geometry" />
        </mxCell>
        <mxCell id="VQGSf6ayIFre-QUfzGoe-12" value="&lt;font face=&quot;Verdana&quot; style=&quot;font-size: 8px;&quot;&gt;Weight&lt;/font&gt;" style="text;html=1;align=left;verticalAlign=middle;whiteSpace=wrap;rounded=0;fontStyle=1" parent="1" vertex="1">
          <mxGeometry x="549.22" y="944.88" width="159.44" height="12.29" as="geometry" />
        </mxCell>
        <mxCell id="VQGSf6ayIFre-QUfzGoe-13" value="&lt;font face=&quot;Verdana&quot; style=&quot;font-size: 8px;&quot;&gt;Created by&lt;/font&gt;" style="text;html=1;align=left;verticalAlign=middle;whiteSpace=wrap;rounded=0;fontStyle=1" parent="1" vertex="1">
          <mxGeometry x="549.22" y="984.25" width="57.08" height="12.29" as="geometry" />
        </mxCell>
        <mxCell id="VQGSf6ayIFre-QUfzGoe-14" value="&lt;font face=&quot;Verdana&quot; style=&quot;font-size: 8px;&quot;&gt;Project Title&lt;/font&gt;" style="text;html=1;align=left;verticalAlign=middle;whiteSpace=wrap;rounded=0;fontStyle=1" parent="1" vertex="1">
          <mxGeometry x="309.05850000000004" y="984.2484999999999" width="57.08" height="12.29" as="geometry" />
        </mxCell>
        <mxCell id="VQGSf6ayIFre-QUfzGoe-15" value="&lt;font face=&quot;Verdana&quot; style=&quot;font-size: 8px;&quot;&gt;Drawing Title&lt;/font&gt;" style="text;html=1;align=left;verticalAlign=middle;whiteSpace=wrap;rounded=0;fontStyle=1" parent="1" vertex="1">
          <mxGeometry x="309.06" y="1023.62" width="64.96" height="12.29" as="geometry" />
        </mxCell>
        <mxCell id="VQGSf6ayIFre-QUfzGoe-16" value="&lt;font face=&quot;Verdana&quot; style=&quot;font-size: 8px;&quot;&gt;Drawing Number&lt;/font&gt;" style="text;html=1;align=left;verticalAlign=middle;whiteSpace=wrap;rounded=0;fontStyle=1" parent="1" vertex="1">
          <mxGeometry x="549.22" y="1023.62" width="80.7" height="12.29" as="geometry" />
        </mxCell>
        <mxCell id="VQGSf6ayIFre-QUfzGoe-17" value="&lt;font face=&quot;Verdana&quot; style=&quot;font-size: 8px;&quot;&gt;Notes&lt;/font&gt;" style="text;html=1;align=left;verticalAlign=middle;whiteSpace=wrap;rounded=0;fontStyle=1" parent="1" vertex="1">
          <mxGeometry x="41.338499999999996" y="984.2484999999999" width="25.59" height="12.29" as="geometry" />
        </mxCell>
        <mxCell id="VQGSf6ayIFre-QUfzGoe-18" value="&lt;font face=&quot;Verdana&quot; style=&quot;font-size: 8px;&quot;&gt;Rev.&lt;/font&gt;" style="text;html=1;align=left;verticalAlign=middle;whiteSpace=wrap;rounded=0;fontStyle=1" parent="1" vertex="1">
          <mxGeometry x="549.22" y="1090.55" width="41.33" height="12.29" as="geometry" />
        </mxCell>
        <mxCell id="VQGSf6ayIFre-QUfzGoe-19" value="&lt;font face=&quot;Verdana&quot; style=&quot;font-size: 8px;&quot;&gt;Date of issue&lt;/font&gt;" style="text;html=1;align=left;verticalAlign=middle;whiteSpace=wrap;rounded=0;fontStyle=1" parent="1" vertex="1">
          <mxGeometry x="588" y="1090.55" width="61.61" height="12.29" as="geometry" />
        </mxCell>
        <mxCell id="VQGSf6ayIFre-QUfzGoe-20" value="&lt;font face=&quot;Verdana&quot; style=&quot;font-size: 8px;&quot;&gt;Sheet&lt;/font&gt;" style="text;html=1;align=left;verticalAlign=middle;whiteSpace=wrap;rounded=0;fontStyle=1" parent="1" vertex="1">
          <mxGeometry x="729.73" y="1090.55" width="61.61" height="12.29" as="geometry" />
        </mxCell>
        <mxCell id="xuHGBV2yemARD54Rfex9-2" value="&lt;font face=&quot;Verdana&quot; style=&quot;font-size: 20px; font-weight: normal;&quot;&gt;RON - EUR&lt;/font&gt;" style="text;html=1;align=left;verticalAlign=middle;whiteSpace=wrap;rounded=0;fillColor=none;fontStyle=1" parent="1" vertex="1">
          <mxGeometry x="41.34" y="964.57" width="114.17" height="12.29" as="geometry" />
        </mxCell>
        <mxCell id="xuHGBV2yemARD54Rfex9-3" value="&lt;span style=&quot;font-family: Verdana; font-size: 20px; font-weight: 400;&quot;&gt;±10%&lt;/span&gt;" style="text;html=1;align=left;verticalAlign=middle;whiteSpace=wrap;rounded=0;fillColor=none;fontStyle=1" parent="1" vertex="1">
          <mxGeometry x="175.2" y="964.57" width="133.85" height="12.29" as="geometry" />
        </mxCell>
        <mxCell id="xuHGBV2yemARD54Rfex9-4" value="&lt;span style=&quot;font-family: Verdana; font-size: 20px; font-weight: 400;&quot;&gt;1 EUR = 5 RON&lt;/span&gt;" style="text;html=1;align=left;verticalAlign=middle;whiteSpace=wrap;rounded=0;fillColor=none;fontStyle=1" parent="1" vertex="1">
          <mxGeometry x="311.03" y="964.57" width="204.72" height="12.29" as="geometry" />
        </mxCell>
        <mxCell id="xuHGBV2yemARD54Rfex9-5" value="&lt;font face=&quot;Verdana&quot; style=&quot;font-size: 20px; font-weight: normal;&quot;&gt;Train Network&lt;/font&gt;" style="text;html=1;align=left;verticalAlign=middle;whiteSpace=wrap;rounded=0;fillColor=none;fontStyle=1" parent="1" vertex="1">
          <mxGeometry x="311.03" y="1003.94" width="187" height="12.29" as="geometry" />
        </mxCell>
        <mxCell id="xuHGBV2yemARD54Rfex9-6" value="&lt;font face=&quot;Verdana&quot; style=&quot;font-size: 20px; font-weight: normal;&quot;&gt;630 grams&lt;/font&gt;" style="text;html=1;align=left;verticalAlign=middle;whiteSpace=wrap;rounded=0;fillColor=none;fontStyle=1" parent="1" vertex="1">
          <mxGeometry x="551.18" y="964.57" width="216.54" height="12.29" as="geometry" />
        </mxCell>
        <mxCell id="xuHGBV2yemARD54Rfex9-7" value="&lt;font face=&quot;Verdana&quot; style=&quot;font-size: 20px; font-weight: normal;&quot;&gt;teoelectric&lt;/font&gt;" style="text;html=1;align=left;verticalAlign=middle;whiteSpace=wrap;rounded=0;fillColor=none;fontStyle=1" parent="1" vertex="1">
          <mxGeometry x="551.17" y="1003.94" width="145.67" height="12.29" as="geometry" />
        </mxCell>
        <mxCell id="xuHGBV2yemARD54Rfex9-8" value="&lt;font face=&quot;Verdana&quot; style=&quot;font-size: 20px; font-weight: normal;&quot;&gt;37&lt;/font&gt;" style="text;html=1;align=center;verticalAlign=middle;whiteSpace=wrap;rounded=0;fillColor=none;fontStyle=1" parent="1" vertex="1">
          <mxGeometry x="557.0899999999999" y="1053.15" width="220.47" height="12.29" as="geometry" />
        </mxCell>
        <mxCell id="xuHGBV2yemARD54Rfex9-9" value="&lt;font face=&quot;Verdana&quot; style=&quot;font-size: 20px; font-weight: normal;&quot;&gt;CFR 21-76 Cost&lt;/font&gt;" style="text;html=1;align=left;verticalAlign=middle;whiteSpace=wrap;rounded=0;fillColor=none;fontStyle=1" parent="1" vertex="1">
          <mxGeometry x="309.04999999999995" y="1068.9" width="248.02" height="12.29" as="geometry" />
        </mxCell>
        <mxCell id="xuHGBV2yemARD54Rfex9-14" value="&lt;font face=&quot;Verdana&quot; style=&quot;font-size: 20px; font-weight: normal;&quot;&gt;1/1&lt;/font&gt;" style="text;html=1;align=left;verticalAlign=middle;whiteSpace=wrap;rounded=0;fillColor=none;fontStyle=1" parent="1" vertex="1">
          <mxGeometry x="735.934" y="1106.2939999999994" width="49.21" height="12.29" as="geometry" />
        </mxCell>
        <mxCell id="xuHGBV2yemARD54Rfex9-15" value="&lt;font face=&quot;Verdana&quot; style=&quot;font-size: 20px; font-weight: normal;&quot;&gt;-&lt;/font&gt;" style="text;html=1;align=center;verticalAlign=middle;whiteSpace=wrap;rounded=0;fillColor=none;fontStyle=1" parent="1" vertex="1">
          <mxGeometry x="651.5699999999999" y="1104.3300000000002" width="19.69" height="12.29" as="geometry" />
        </mxCell>
        <mxCell id="xuHGBV2yemARD54Rfex9-16" value="&lt;font face=&quot;Verdana&quot; style=&quot;font-size: 20px; font-weight: normal;&quot;&gt;-&lt;/font&gt;" style="text;html=1;align=center;verticalAlign=middle;whiteSpace=wrap;rounded=0;fillColor=none;fontStyle=1" parent="1" vertex="1">
          <mxGeometry x="557.0884999999998" y="1104.3285" width="19.69" height="12.29" as="geometry" />
        </mxCell>
        <mxCell id="v2AuxBMflL_ghMZSKkXt-2" value="&lt;span style=&quot;font-family: Verdana; font-size: 20px; font-weight: 400;&quot;&gt;The printer filament is&lt;/span&gt;" style="text;html=1;align=left;verticalAlign=middle;whiteSpace=wrap;rounded=0;fillColor=none;fontStyle=1" parent="1" vertex="1">
          <mxGeometry x="41.33" y="1003.94" width="251.98" height="12.29" as="geometry" />
        </mxCell>
        <mxCell id="v2AuxBMflL_ghMZSKkXt-3" value="&lt;span style=&quot;font-family: Verdana; font-size: 20px; font-weight: 400;&quot;&gt;calculated using default&lt;/span&gt;" style="text;html=1;align=left;verticalAlign=middle;whiteSpace=wrap;rounded=0;fillColor=none;fontStyle=1" parent="1" vertex="1">
          <mxGeometry x="41.33" y="1027.56" width="242.14" height="12.29" as="geometry" />
        </mxCell>
        <mxCell id="v2AuxBMflL_ghMZSKkXt-4" value="&lt;span style=&quot;font-family: Verdana; font-size: 20px; font-weight: 400;&quot;&gt;slicer settings.&lt;/span&gt;" style="text;html=1;align=left;verticalAlign=middle;whiteSpace=wrap;rounded=0;fillColor=none;fontStyle=1" parent="1" vertex="1">
          <mxGeometry x="41.34" y="1051.97" width="240.16" height="12.29" as="geometry" />
        </mxCell>
        <mxCell id="v2AuxBMflL_ghMZSKkXt-5" value="&lt;span style=&quot;font-family: Verdana; font-size: 20px; font-weight: 400;&quot;&gt;The cost does not include&lt;/span&gt;" style="text;html=1;align=left;verticalAlign=middle;whiteSpace=wrap;rounded=0;fillColor=none;fontStyle=1" parent="1" vertex="1">
          <mxGeometry x="41.32" y="1076.77" width="265.77" height="12.29" as="geometry" />
        </mxCell>
        <mxCell id="v2AuxBMflL_ghMZSKkXt-6" value="&lt;span style=&quot;font-family: Verdana; font-size: 20px; font-weight: 400;&quot;&gt;the consumables.&lt;/span&gt;" style="text;html=1;align=left;verticalAlign=middle;whiteSpace=wrap;rounded=0;fillColor=none;fontStyle=1" parent="1" vertex="1">
          <mxGeometry x="41.33" y="1102.36" width="238.19" height="12.29" as="geometry" />
        </mxCell>
        <mxCell id="5vBH3ztUi321Li3JuPsc-152" value="Assets" style="childLayout=tableLayout;recursiveResize=0;shadow=1;strokeWidth=1.5;rounded=0;glass=0;strokeColor=default;fillColor=default;aspect=fixed;fontSize=15;" parent="1" vertex="1">
          <mxGeometry x="152.3619" y="118.11" width="521.2689999999998" height="198" as="geometry" />
        </mxCell>
        <mxCell id="5vBH3ztUi321Li3JuPsc-153" style="shape=tableRow;horizontal=0;startSize=0;swimlaneHead=0;swimlaneBody=0;top=0;left=0;bottom=0;right=0;dropTarget=0;collapsible=0;recursiveResize=0;expand=0;fontStyle=0;fillColor=#cdeb8b;strokeColor=default;fontSize=15;" parent="5vBH3ztUi321Li3JuPsc-152" vertex="1">
          <mxGeometry width="521.2689999999998" height="60" as="geometry" />
        </mxCell>
        <mxCell id="5vBH3ztUi321Li3JuPsc-154" value="Component&lt;div&gt;Name&lt;/div&gt;" style="connectable=0;recursiveResize=0;align=center;fontStyle=1;html=1;fillColor=#cdeb8b;strokeColor=default;fontSize=15;" parent="5vBH3ztUi321Li3JuPsc-153" vertex="1">
          <mxGeometry width="113" height="60" as="geometry">
            <mxRectangle width="113" height="60" as="alternateBounds" />
          </mxGeometry>
        </mxCell>
        <mxCell id="5vBH3ztUi321Li3JuPsc-155" value="Quantity" style="connectable=0;recursiveResize=0;align=center;fontStyle=1;html=1;fillColor=#cdeb8b;strokeColor=default;fontSize=15;" parent="5vBH3ztUi321Li3JuPsc-153" vertex="1">
          <mxGeometry x="113" width="78" height="60" as="geometry">
            <mxRectangle width="78" height="60" as="alternateBounds" />
          </mxGeometry>
        </mxCell>
        <mxCell id="5vBH3ztUi321Li3JuPsc-157" value="Price / Unit&lt;br style=&quot;font-size: 15px;&quot;&gt;(RON)" style="connectable=0;recursiveResize=0;align=center;fontStyle=1;html=1;fillColor=#cdeb8b;strokeColor=default;fontSize=15;" parent="5vBH3ztUi321Li3JuPsc-153" vertex="1">
          <mxGeometry x="191" width="94" height="60" as="geometry">
            <mxRectangle width="94" height="60" as="alternateBounds" />
          </mxGeometry>
        </mxCell>
        <mxCell id="5vBH3ztUi321Li3JuPsc-158" value="Price / Unit&lt;br style=&quot;font-size: 15px;&quot;&gt;(EUR)" style="connectable=0;recursiveResize=0;align=center;fontStyle=1;html=1;fillColor=#cdeb8b;strokeColor=default;fontSize=15;" parent="5vBH3ztUi321Li3JuPsc-153" vertex="1">
          <mxGeometry x="285" width="94" height="60" as="geometry">
            <mxRectangle width="94" height="60" as="alternateBounds" />
          </mxGeometry>
        </mxCell>
        <mxCell id="5vBH3ztUi321Li3JuPsc-159" value="Subtotal&lt;br style=&quot;font-size: 15px;&quot;&gt;(RON)" style="connectable=0;recursiveResize=0;align=center;fontStyle=1;html=1;fillColor=#cdeb8b;strokeColor=default;fontSize=15;" parent="5vBH3ztUi321Li3JuPsc-153" vertex="1">
          <mxGeometry x="379" width="71" height="60" as="geometry">
            <mxRectangle width="71" height="60" as="alternateBounds" />
          </mxGeometry>
        </mxCell>
        <mxCell id="5vBH3ztUi321Li3JuPsc-160" value="Subtotal&lt;br style=&quot;font-size: 15px;&quot;&gt;(EUR)" style="connectable=0;recursiveResize=0;align=center;fontStyle=1;html=1;fillColor=#cdeb8b;strokeColor=default;fontSize=15;" parent="5vBH3ztUi321Li3JuPsc-153" vertex="1">
          <mxGeometry x="450" width="71" height="60" as="geometry">
            <mxRectangle width="71" height="60" as="alternateBounds" />
          </mxGeometry>
        </mxCell>
        <mxCell id="5vBH3ztUi321Li3JuPsc-305" style="shape=tableRow;horizontal=0;startSize=0;swimlaneHead=0;swimlaneBody=0;top=0;left=0;bottom=0;right=0;dropTarget=0;collapsible=0;recursiveResize=0;expand=0;fontStyle=0;strokeColor=default;fontSize=15;" parent="5vBH3ztUi321Li3JuPsc-152" vertex="1">
          <mxGeometry y="60" width="521.2689999999998" height="46" as="geometry" />
        </mxCell>
        <mxCell id="5vBH3ztUi321Li3JuPsc-306" value="1K Resistor" style="connectable=0;recursiveResize=0;align=center;whiteSpace=wrap;html=1;strokeColor=default;fontSize=15;" parent="5vBH3ztUi321Li3JuPsc-305" vertex="1">
          <mxGeometry width="113" height="46" as="geometry">
            <mxRectangle width="113" height="46" as="alternateBounds" />
          </mxGeometry>
        </mxCell>
        <mxCell id="5vBH3ztUi321Li3JuPsc-307" value="4" style="connectable=0;recursiveResize=0;align=center;whiteSpace=wrap;html=1;strokeColor=default;fontSize=15;" parent="5vBH3ztUi321Li3JuPsc-305" vertex="1">
          <mxGeometry x="113" width="78" height="46" as="geometry">
            <mxRectangle width="78" height="46" as="alternateBounds" />
          </mxGeometry>
        </mxCell>
        <mxCell id="5vBH3ztUi321Li3JuPsc-308" value="0.1" style="connectable=0;recursiveResize=0;align=center;whiteSpace=wrap;html=1;strokeColor=default;fontSize=15;" parent="5vBH3ztUi321Li3JuPsc-305" vertex="1">
          <mxGeometry x="191" width="94" height="46" as="geometry">
            <mxRectangle width="94" height="46" as="alternateBounds" />
          </mxGeometry>
        </mxCell>
        <mxCell id="5vBH3ztUi321Li3JuPsc-309" value="0.02" style="connectable=0;recursiveResize=0;align=center;whiteSpace=wrap;html=1;strokeColor=default;fontSize=15;" parent="5vBH3ztUi321Li3JuPsc-305" vertex="1">
          <mxGeometry x="285" width="94" height="46" as="geometry">
            <mxRectangle width="94" height="46" as="alternateBounds" />
          </mxGeometry>
        </mxCell>
        <mxCell id="5vBH3ztUi321Li3JuPsc-310" value="0.4" style="connectable=0;recursiveResize=0;align=center;whiteSpace=wrap;html=1;strokeColor=default;fontSize=15;" parent="5vBH3ztUi321Li3JuPsc-305" vertex="1">
          <mxGeometry x="379" width="71" height="46" as="geometry">
            <mxRectangle width="71" height="46" as="alternateBounds" />
          </mxGeometry>
        </mxCell>
        <mxCell id="5vBH3ztUi321Li3JuPsc-311" value="0.08" style="connectable=0;recursiveResize=0;align=center;whiteSpace=wrap;html=1;strokeColor=default;fontSize=15;" parent="5vBH3ztUi321Li3JuPsc-305" vertex="1">
          <mxGeometry x="450" width="71" height="46" as="geometry">
            <mxRectangle width="71" height="46" as="alternateBounds" />
          </mxGeometry>
        </mxCell>
        <mxCell id="5vBH3ztUi321Li3JuPsc-161" style="shape=tableRow;horizontal=0;startSize=0;swimlaneHead=0;swimlaneBody=0;top=0;left=0;bottom=0;right=0;dropTarget=0;collapsible=0;recursiveResize=0;expand=0;fontStyle=0;strokeColor=default;fontSize=15;" parent="5vBH3ztUi321Li3JuPsc-152" vertex="1">
          <mxGeometry y="106" width="521.2689999999998" height="46" as="geometry" />
        </mxCell>
        <mxCell id="5vBH3ztUi321Li3JuPsc-162" value="5 mm LED" style="connectable=0;recursiveResize=0;align=center;whiteSpace=wrap;html=1;strokeColor=default;fontSize=15;" parent="5vBH3ztUi321Li3JuPsc-161" vertex="1">
          <mxGeometry width="113" height="46" as="geometry">
            <mxRectangle width="113" height="46" as="alternateBounds" />
          </mxGeometry>
        </mxCell>
        <mxCell id="5vBH3ztUi321Li3JuPsc-163" value="4" style="connectable=0;recursiveResize=0;align=center;whiteSpace=wrap;html=1;strokeColor=default;fontSize=15;" parent="5vBH3ztUi321Li3JuPsc-161" vertex="1">
          <mxGeometry x="113" width="78" height="46" as="geometry">
            <mxRectangle width="78" height="46" as="alternateBounds" />
          </mxGeometry>
        </mxCell>
        <mxCell id="5vBH3ztUi321Li3JuPsc-165" value="0.3" style="connectable=0;recursiveResize=0;align=center;whiteSpace=wrap;html=1;strokeColor=default;fontSize=15;" parent="5vBH3ztUi321Li3JuPsc-161" vertex="1">
          <mxGeometry x="191" width="94" height="46" as="geometry">
            <mxRectangle width="94" height="46" as="alternateBounds" />
          </mxGeometry>
        </mxCell>
        <mxCell id="5vBH3ztUi321Li3JuPsc-166" value="0.06" style="connectable=0;recursiveResize=0;align=center;whiteSpace=wrap;html=1;strokeColor=default;fontSize=15;" parent="5vBH3ztUi321Li3JuPsc-161" vertex="1">
          <mxGeometry x="285" width="94" height="46" as="geometry">
            <mxRectangle width="94" height="46" as="alternateBounds" />
          </mxGeometry>
        </mxCell>
        <mxCell id="5vBH3ztUi321Li3JuPsc-167" value="1.2" style="connectable=0;recursiveResize=0;align=center;whiteSpace=wrap;html=1;strokeColor=default;fontSize=15;" parent="5vBH3ztUi321Li3JuPsc-161" vertex="1">
          <mxGeometry x="379" width="71" height="46" as="geometry">
            <mxRectangle width="71" height="46" as="alternateBounds" />
          </mxGeometry>
        </mxCell>
        <mxCell id="5vBH3ztUi321Li3JuPsc-168" value="0.24" style="connectable=0;recursiveResize=0;align=center;whiteSpace=wrap;html=1;strokeColor=default;fontSize=15;" parent="5vBH3ztUi321Li3JuPsc-161" vertex="1">
          <mxGeometry x="450" width="71" height="46" as="geometry">
            <mxRectangle width="71" height="46" as="alternateBounds" />
          </mxGeometry>
        </mxCell>
        <mxCell id="5vBH3ztUi321Li3JuPsc-169" style="shape=tableRow;horizontal=0;startSize=0;swimlaneHead=0;swimlaneBody=0;top=0;left=0;bottom=0;right=0;dropTarget=0;collapsible=0;recursiveResize=0;expand=0;fontStyle=0;strokeColor=default;fontSize=15;" parent="5vBH3ztUi321Li3JuPsc-152" vertex="1">
          <mxGeometry y="152" width="521.2689999999998" height="46" as="geometry" />
        </mxCell>
        <mxCell id="5vBH3ztUi321Li3JuPsc-170" value="5x5x3 Magnet" style="connectable=0;recursiveResize=0;align=center;whiteSpace=wrap;html=1;strokeColor=default;fontSize=15;" parent="5vBH3ztUi321Li3JuPsc-169" vertex="1">
          <mxGeometry width="113" height="46" as="geometry">
            <mxRectangle width="113" height="46" as="alternateBounds" />
          </mxGeometry>
        </mxCell>
        <mxCell id="5vBH3ztUi321Li3JuPsc-171" value="4" style="connectable=0;recursiveResize=0;align=center;whiteSpace=wrap;html=1;strokeColor=default;fontSize=15;" parent="5vBH3ztUi321Li3JuPsc-169" vertex="1">
          <mxGeometry x="113" width="78" height="46" as="geometry">
            <mxRectangle width="78" height="46" as="alternateBounds" />
          </mxGeometry>
        </mxCell>
        <mxCell id="5vBH3ztUi321Li3JuPsc-173" value="0.85" style="connectable=0;recursiveResize=0;align=center;whiteSpace=wrap;html=1;strokeColor=default;fontSize=15;" parent="5vBH3ztUi321Li3JuPsc-169" vertex="1">
          <mxGeometry x="191" width="94" height="46" as="geometry">
            <mxRectangle width="94" height="46" as="alternateBounds" />
          </mxGeometry>
        </mxCell>
        <mxCell id="5vBH3ztUi321Li3JuPsc-174" value="0.17" style="connectable=0;recursiveResize=0;align=center;whiteSpace=wrap;html=1;strokeColor=default;fontSize=15;" parent="5vBH3ztUi321Li3JuPsc-169" vertex="1">
          <mxGeometry x="285" width="94" height="46" as="geometry">
            <mxRectangle width="94" height="46" as="alternateBounds" />
          </mxGeometry>
        </mxCell>
        <mxCell id="5vBH3ztUi321Li3JuPsc-175" value="3.4" style="connectable=0;recursiveResize=0;align=center;whiteSpace=wrap;html=1;strokeColor=default;fontSize=15;" parent="5vBH3ztUi321Li3JuPsc-169" vertex="1">
          <mxGeometry x="379" width="71" height="46" as="geometry">
            <mxRectangle width="71" height="46" as="alternateBounds" />
          </mxGeometry>
        </mxCell>
        <mxCell id="5vBH3ztUi321Li3JuPsc-176" value="0.68" style="connectable=0;recursiveResize=0;align=center;whiteSpace=wrap;html=1;strokeColor=default;fontSize=15;" parent="5vBH3ztUi321Li3JuPsc-169" vertex="1">
          <mxGeometry x="450" width="71" height="46" as="geometry">
            <mxRectangle width="71" height="46" as="alternateBounds" />
          </mxGeometry>
        </mxCell>
        <mxCell id="5vBH3ztUi321Li3JuPsc-209" value="Assets" style="childLayout=tableLayout;recursiveResize=0;shadow=1;strokeWidth=1.5;rounded=0;glass=0;strokeColor=#000000;fillColor=default;fontSize=15;" parent="1" vertex="1">
          <mxGeometry x="161.997" y="716.534" width="502.5" height="114" as="geometry" />
        </mxCell>
        <mxCell id="5vBH3ztUi321Li3JuPsc-210" style="shape=tableRow;horizontal=0;startSize=0;swimlaneHead=0;swimlaneBody=0;top=0;left=0;bottom=0;right=0;dropTarget=0;collapsible=0;recursiveResize=0;expand=0;fontStyle=0;fillColor=#cdeb8b;strokeColor=#000000;fontSize=15;" parent="5vBH3ztUi321Li3JuPsc-209" vertex="1">
          <mxGeometry width="502.5" height="57" as="geometry" />
        </mxCell>
        <mxCell id="5vBH3ztUi321Li3JuPsc-211" value="&amp;nbsp; Total Cost (RON) :&amp;nbsp; &amp;nbsp; &amp;nbsp; &amp;nbsp; &amp;nbsp; &amp;nbsp; &amp;nbsp; &amp;nbsp; &amp;nbsp; &amp;nbsp; &amp;nbsp; &amp;nbsp; &amp;nbsp; &amp;nbsp; &amp;nbsp; &amp;nbsp; &amp;nbsp; &amp;nbsp; &amp;nbsp; &amp;nbsp; &amp;nbsp; &amp;nbsp; &amp;nbsp; &amp;nbsp; &amp;nbsp; &amp;nbsp; &amp;nbsp; &amp;nbsp; &amp;nbsp; &amp;nbsp; &amp;nbsp; &amp;nbsp; &amp;nbsp; &amp;nbsp; &amp;nbsp; &amp;nbsp; &amp;nbsp;&amp;nbsp;&lt;u&gt;146.69&lt;/u&gt;" style="connectable=0;recursiveResize=0;align=left;fontStyle=1;html=1;fillColor=#dae8fc;strokeColor=#000000;rowspan=1;colspan=7;fontSize=15;" parent="5vBH3ztUi321Li3JuPsc-210" vertex="1">
          <mxGeometry width="503" height="57" as="geometry">
            <mxRectangle width="99" height="57" as="alternateBounds" />
          </mxGeometry>
        </mxCell>
        <mxCell id="5vBH3ztUi321Li3JuPsc-212" value="Unit" style="connectable=0;recursiveResize=0;align=center;fontStyle=1;html=1;fillColor=#cdeb8b;strokeColor=default;" parent="5vBH3ztUi321Li3JuPsc-210" vertex="1" visible="0">
          <mxGeometry x="99" width="67" height="57" as="geometry">
            <mxRectangle width="67" height="57" as="alternateBounds" />
          </mxGeometry>
        </mxCell>
        <mxCell id="5vBH3ztUi321Li3JuPsc-213" value="Quantity" style="connectable=0;recursiveResize=0;align=center;fontStyle=1;html=1;fillColor=#cdeb8b;strokeColor=default;" parent="5vBH3ztUi321Li3JuPsc-210" vertex="1" visible="0">
          <mxGeometry x="166" width="68" height="57" as="geometry">
            <mxRectangle width="68" height="57" as="alternateBounds" />
          </mxGeometry>
        </mxCell>
        <mxCell id="5vBH3ztUi321Li3JuPsc-214" value="Price / Unit&lt;br&gt;RON" style="connectable=0;recursiveResize=0;align=center;fontStyle=1;html=1;fillColor=#cdeb8b;strokeColor=default;" parent="5vBH3ztUi321Li3JuPsc-210" vertex="1" visible="0">
          <mxGeometry x="234" width="82" height="57" as="geometry">
            <mxRectangle width="82" height="57" as="alternateBounds" />
          </mxGeometry>
        </mxCell>
        <mxCell id="5vBH3ztUi321Li3JuPsc-215" value="Price / Unit&lt;br&gt;EUR" style="connectable=0;recursiveResize=0;align=center;fontStyle=1;html=1;fillColor=#cdeb8b;strokeColor=default;" parent="5vBH3ztUi321Li3JuPsc-210" vertex="1" visible="0">
          <mxGeometry x="316" width="84" height="57" as="geometry">
            <mxRectangle width="84" height="57" as="alternateBounds" />
          </mxGeometry>
        </mxCell>
        <mxCell id="5vBH3ztUi321Li3JuPsc-216" value="Value&lt;br&gt;RON" style="connectable=0;recursiveResize=0;align=center;fontStyle=1;html=1;fillColor=#cdeb8b;strokeColor=default;" parent="5vBH3ztUi321Li3JuPsc-210" vertex="1" visible="0">
          <mxGeometry x="400" width="54" height="57" as="geometry">
            <mxRectangle width="54" height="57" as="alternateBounds" />
          </mxGeometry>
        </mxCell>
        <mxCell id="5vBH3ztUi321Li3JuPsc-217" value="Value&lt;br&gt;EUR" style="connectable=0;recursiveResize=0;align=center;fontStyle=1;html=1;fillColor=#cdeb8b;strokeColor=default;" parent="5vBH3ztUi321Li3JuPsc-210" vertex="1" visible="0">
          <mxGeometry x="454" width="49" height="57" as="geometry">
            <mxRectangle width="49" height="57" as="alternateBounds" />
          </mxGeometry>
        </mxCell>
        <mxCell id="5vBH3ztUi321Li3JuPsc-218" style="shape=tableRow;horizontal=0;startSize=0;swimlaneHead=0;swimlaneBody=0;top=0;left=0;bottom=0;right=0;dropTarget=0;collapsible=0;recursiveResize=0;expand=0;fontStyle=0;fillColor=#cdeb8b;strokeColor=#000000;fontSize=15;" parent="5vBH3ztUi321Li3JuPsc-209" vertex="1">
          <mxGeometry y="57" width="502.5" height="57" as="geometry" />
        </mxCell>
        <mxCell id="5vBH3ztUi321Li3JuPsc-219" value="&amp;nbsp; Total Cost (EUR) :&amp;nbsp; &amp;nbsp; &amp;nbsp; &amp;nbsp; &amp;nbsp; &amp;nbsp; &amp;nbsp; &amp;nbsp; &amp;nbsp; &amp;nbsp; &amp;nbsp; &amp;nbsp; &amp;nbsp; &amp;nbsp; &amp;nbsp; &amp;nbsp; &amp;nbsp; &amp;nbsp; &amp;nbsp; &amp;nbsp; &amp;nbsp; &amp;nbsp; &amp;nbsp; &amp;nbsp; &amp;nbsp; &amp;nbsp; &amp;nbsp; &amp;nbsp; &amp;nbsp; &amp;nbsp; &amp;nbsp; &amp;nbsp; &amp;nbsp; &amp;nbsp; &amp;nbsp; &amp;nbsp; &amp;nbsp; &amp;nbsp; &lt;u&gt;29.33&lt;/u&gt;" style="connectable=0;recursiveResize=0;align=left;fontStyle=1;html=1;fillColor=#dae8fc;strokeColor=#000000;rowspan=1;colspan=7;fontSize=15;" parent="5vBH3ztUi321Li3JuPsc-218" vertex="1">
          <mxGeometry width="503" height="57" as="geometry">
            <mxRectangle width="99" height="57" as="alternateBounds" />
          </mxGeometry>
        </mxCell>
        <mxCell id="5vBH3ztUi321Li3JuPsc-220" style="connectable=0;recursiveResize=0;align=center;fontStyle=1;html=1;fillColor=#cdeb8b;strokeColor=default;" parent="5vBH3ztUi321Li3JuPsc-218" vertex="1" visible="0">
          <mxGeometry x="99" width="67" height="57" as="geometry">
            <mxRectangle width="67" height="57" as="alternateBounds" />
          </mxGeometry>
        </mxCell>
        <mxCell id="5vBH3ztUi321Li3JuPsc-221" style="connectable=0;recursiveResize=0;align=center;fontStyle=1;html=1;fillColor=#cdeb8b;strokeColor=default;" parent="5vBH3ztUi321Li3JuPsc-218" vertex="1" visible="0">
          <mxGeometry x="166" width="68" height="57" as="geometry">
            <mxRectangle width="68" height="57" as="alternateBounds" />
          </mxGeometry>
        </mxCell>
        <mxCell id="5vBH3ztUi321Li3JuPsc-222" style="connectable=0;recursiveResize=0;align=center;fontStyle=1;html=1;fillColor=#cdeb8b;strokeColor=default;" parent="5vBH3ztUi321Li3JuPsc-218" vertex="1" visible="0">
          <mxGeometry x="234" width="82" height="57" as="geometry">
            <mxRectangle width="82" height="57" as="alternateBounds" />
          </mxGeometry>
        </mxCell>
        <mxCell id="5vBH3ztUi321Li3JuPsc-223" style="connectable=0;recursiveResize=0;align=center;fontStyle=1;html=1;fillColor=#cdeb8b;strokeColor=default;" parent="5vBH3ztUi321Li3JuPsc-218" vertex="1" visible="0">
          <mxGeometry x="316" width="84" height="57" as="geometry">
            <mxRectangle width="84" height="57" as="alternateBounds" />
          </mxGeometry>
        </mxCell>
        <mxCell id="5vBH3ztUi321Li3JuPsc-224" style="connectable=0;recursiveResize=0;align=center;fontStyle=1;html=1;fillColor=#cdeb8b;strokeColor=default;" parent="5vBH3ztUi321Li3JuPsc-218" vertex="1" visible="0">
          <mxGeometry x="400" width="54" height="57" as="geometry">
            <mxRectangle width="54" height="57" as="alternateBounds" />
          </mxGeometry>
        </mxCell>
        <mxCell id="5vBH3ztUi321Li3JuPsc-225" style="connectable=0;recursiveResize=0;align=center;fontStyle=1;html=1;fillColor=#cdeb8b;strokeColor=default;" parent="5vBH3ztUi321Li3JuPsc-218" vertex="1" visible="0">
          <mxGeometry x="454" width="49" height="57" as="geometry">
            <mxRectangle width="49" height="57" as="alternateBounds" />
          </mxGeometry>
        </mxCell>
        <mxCell id="5vBH3ztUi321Li3JuPsc-226" value="Assets" style="childLayout=tableLayout;recursiveResize=0;shadow=1;strokeWidth=1.5;rounded=0;glass=0;strokeColor=default;fillColor=default;fontSize=15;" parent="1" vertex="1">
          <mxGeometry x="114.5667" y="348.42449999999997" width="599.2689999999998" height="336" as="geometry" />
        </mxCell>
        <mxCell id="5vBH3ztUi321Li3JuPsc-227" style="shape=tableRow;horizontal=0;startSize=0;swimlaneHead=0;swimlaneBody=0;top=0;left=0;bottom=0;right=0;dropTarget=0;collapsible=0;recursiveResize=0;expand=0;fontStyle=0;fillColor=#cdeb8b;strokeColor=default;fontSize=15;" parent="5vBH3ztUi321Li3JuPsc-226" vertex="1">
          <mxGeometry width="599.2689999999998" height="60" as="geometry" />
        </mxCell>
        <mxCell id="5vBH3ztUi321Li3JuPsc-228" value="Others" style="connectable=0;recursiveResize=0;align=center;fontStyle=1;html=1;fillColor=#cdeb8b;strokeColor=default;fontSize=15;" parent="5vBH3ztUi321Li3JuPsc-227" vertex="1">
          <mxGeometry width="130" height="60" as="geometry">
            <mxRectangle width="130" height="60" as="alternateBounds" />
          </mxGeometry>
        </mxCell>
        <mxCell id="5vBH3ztUi321Li3JuPsc-254" value="Unit" style="connectable=0;recursiveResize=0;align=center;fontStyle=1;html=1;fillColor=#cdeb8b;strokeColor=default;fontSize=15;" parent="5vBH3ztUi321Li3JuPsc-227" vertex="1">
          <mxGeometry x="130" width="61" height="60" as="geometry">
            <mxRectangle width="61" height="60" as="alternateBounds" />
          </mxGeometry>
        </mxCell>
        <mxCell id="5vBH3ztUi321Li3JuPsc-229" value="Quantity" style="connectable=0;recursiveResize=0;align=center;fontStyle=1;html=1;fillColor=#cdeb8b;strokeColor=default;fontSize=15;" parent="5vBH3ztUi321Li3JuPsc-227" vertex="1">
          <mxGeometry x="191" width="78" height="60" as="geometry">
            <mxRectangle width="78" height="60" as="alternateBounds" />
          </mxGeometry>
        </mxCell>
        <mxCell id="5vBH3ztUi321Li3JuPsc-230" value="Price / Unit&lt;br style=&quot;font-size: 15px;&quot;&gt;(RON)" style="connectable=0;recursiveResize=0;align=center;fontStyle=1;html=1;fillColor=#cdeb8b;strokeColor=default;fontSize=15;" parent="5vBH3ztUi321Li3JuPsc-227" vertex="1">
          <mxGeometry x="269" width="94" height="60" as="geometry">
            <mxRectangle width="94" height="60" as="alternateBounds" />
          </mxGeometry>
        </mxCell>
        <mxCell id="5vBH3ztUi321Li3JuPsc-231" value="Price / Unit&lt;br style=&quot;font-size: 15px;&quot;&gt;(EUR)" style="connectable=0;recursiveResize=0;align=center;fontStyle=1;html=1;fillColor=#cdeb8b;strokeColor=default;fontSize=15;" parent="5vBH3ztUi321Li3JuPsc-227" vertex="1">
          <mxGeometry x="363" width="94" height="60" as="geometry">
            <mxRectangle width="94" height="60" as="alternateBounds" />
          </mxGeometry>
        </mxCell>
        <mxCell id="5vBH3ztUi321Li3JuPsc-232" value="Subtotal&lt;br style=&quot;font-size: 15px;&quot;&gt;(RON)" style="connectable=0;recursiveResize=0;align=center;fontStyle=1;html=1;fillColor=#cdeb8b;strokeColor=default;fontSize=15;" parent="5vBH3ztUi321Li3JuPsc-227" vertex="1">
          <mxGeometry x="457" width="71" height="60" as="geometry">
            <mxRectangle width="71" height="60" as="alternateBounds" />
          </mxGeometry>
        </mxCell>
        <mxCell id="5vBH3ztUi321Li3JuPsc-233" value="Subtotal&lt;br style=&quot;font-size: 15px;&quot;&gt;(EUR)" style="connectable=0;recursiveResize=0;align=center;fontStyle=1;html=1;fillColor=#cdeb8b;strokeColor=default;fontSize=15;" parent="5vBH3ztUi321Li3JuPsc-227" vertex="1">
          <mxGeometry x="528" width="71" height="60" as="geometry">
            <mxRectangle width="71" height="60" as="alternateBounds" />
          </mxGeometry>
        </mxCell>
        <mxCell id="5vBH3ztUi321Li3JuPsc-234" style="shape=tableRow;horizontal=0;startSize=0;swimlaneHead=0;swimlaneBody=0;top=0;left=0;bottom=0;right=0;dropTarget=0;collapsible=0;recursiveResize=0;expand=0;fontStyle=0;strokeColor=default;fontSize=15;" parent="5vBH3ztUi321Li3JuPsc-226" vertex="1">
          <mxGeometry y="60" width="599.2689999999998" height="46" as="geometry" />
        </mxCell>
        <mxCell id="5vBH3ztUi321Li3JuPsc-235" value="Printer&lt;div&gt;filament (PLA)&lt;/div&gt;" style="connectable=0;recursiveResize=0;align=center;whiteSpace=wrap;html=1;strokeColor=default;fontSize=15;" parent="5vBH3ztUi321Li3JuPsc-234" vertex="1">
          <mxGeometry width="130" height="46" as="geometry">
            <mxRectangle width="130" height="46" as="alternateBounds" />
          </mxGeometry>
        </mxCell>
        <mxCell id="5vBH3ztUi321Li3JuPsc-255" value="Grams" style="connectable=0;recursiveResize=0;align=center;whiteSpace=wrap;html=1;strokeColor=default;fontSize=15;" parent="5vBH3ztUi321Li3JuPsc-234" vertex="1">
          <mxGeometry x="130" width="61" height="46" as="geometry">
            <mxRectangle width="61" height="46" as="alternateBounds" />
          </mxGeometry>
        </mxCell>
        <mxCell id="5vBH3ztUi321Li3JuPsc-236" value="588" style="connectable=0;recursiveResize=0;align=center;whiteSpace=wrap;html=1;strokeColor=default;fontSize=15;" parent="5vBH3ztUi321Li3JuPsc-234" vertex="1">
          <mxGeometry x="191" width="78" height="46" as="geometry">
            <mxRectangle width="78" height="46" as="alternateBounds" />
          </mxGeometry>
        </mxCell>
        <mxCell id="5vBH3ztUi321Li3JuPsc-237" value="0.1" style="connectable=0;recursiveResize=0;align=center;whiteSpace=wrap;html=1;strokeColor=default;fontSize=15;" parent="5vBH3ztUi321Li3JuPsc-234" vertex="1">
          <mxGeometry x="269" width="94" height="46" as="geometry">
            <mxRectangle width="94" height="46" as="alternateBounds" />
          </mxGeometry>
        </mxCell>
        <mxCell id="5vBH3ztUi321Li3JuPsc-238" value="0.02" style="connectable=0;recursiveResize=0;align=center;whiteSpace=wrap;html=1;strokeColor=default;fontSize=15;" parent="5vBH3ztUi321Li3JuPsc-234" vertex="1">
          <mxGeometry x="363" width="94" height="46" as="geometry">
            <mxRectangle width="94" height="46" as="alternateBounds" />
          </mxGeometry>
        </mxCell>
        <mxCell id="5vBH3ztUi321Li3JuPsc-239" value="58.8" style="connectable=0;recursiveResize=0;align=center;whiteSpace=wrap;html=1;strokeColor=default;fontSize=15;" parent="5vBH3ztUi321Li3JuPsc-234" vertex="1">
          <mxGeometry x="457" width="71" height="46" as="geometry">
            <mxRectangle width="71" height="46" as="alternateBounds" />
          </mxGeometry>
        </mxCell>
        <mxCell id="5vBH3ztUi321Li3JuPsc-240" value="11.76" style="connectable=0;recursiveResize=0;align=center;whiteSpace=wrap;html=1;strokeColor=default;fontSize=15;" parent="5vBH3ztUi321Li3JuPsc-234" vertex="1">
          <mxGeometry x="528" width="71" height="46" as="geometry">
            <mxRectangle width="71" height="46" as="alternateBounds" />
          </mxGeometry>
        </mxCell>
        <mxCell id="5vBH3ztUi321Li3JuPsc-297" style="shape=tableRow;horizontal=0;startSize=0;swimlaneHead=0;swimlaneBody=0;top=0;left=0;bottom=0;right=0;dropTarget=0;collapsible=0;recursiveResize=0;expand=0;fontStyle=0;strokeColor=default;fontSize=15;" parent="5vBH3ztUi321Li3JuPsc-226" vertex="1">
          <mxGeometry y="106" width="599.2689999999998" height="46" as="geometry" />
        </mxCell>
        <mxCell id="5vBH3ztUi321Li3JuPsc-298" value="Printing time" style="connectable=0;recursiveResize=0;align=center;whiteSpace=wrap;html=1;strokeColor=default;fontSize=15;" parent="5vBH3ztUi321Li3JuPsc-297" vertex="1">
          <mxGeometry width="130" height="46" as="geometry">
            <mxRectangle width="130" height="46" as="alternateBounds" />
          </mxGeometry>
        </mxCell>
        <mxCell id="5vBH3ztUi321Li3JuPsc-299" value="Hours" style="connectable=0;recursiveResize=0;align=center;whiteSpace=wrap;html=1;strokeColor=default;fontSize=15;" parent="5vBH3ztUi321Li3JuPsc-297" vertex="1">
          <mxGeometry x="130" width="61" height="46" as="geometry">
            <mxRectangle width="61" height="46" as="alternateBounds" />
          </mxGeometry>
        </mxCell>
        <mxCell id="5vBH3ztUi321Li3JuPsc-300" value="78" style="connectable=0;recursiveResize=0;align=center;whiteSpace=wrap;html=1;strokeColor=default;fontSize=15;" parent="5vBH3ztUi321Li3JuPsc-297" vertex="1">
          <mxGeometry x="191" width="78" height="46" as="geometry">
            <mxRectangle width="78" height="46" as="alternateBounds" />
          </mxGeometry>
        </mxCell>
        <mxCell id="5vBH3ztUi321Li3JuPsc-301" value="1" style="connectable=0;recursiveResize=0;align=center;whiteSpace=wrap;html=1;strokeColor=default;fontSize=15;" parent="5vBH3ztUi321Li3JuPsc-297" vertex="1">
          <mxGeometry x="269" width="94" height="46" as="geometry">
            <mxRectangle width="94" height="46" as="alternateBounds" />
          </mxGeometry>
        </mxCell>
        <mxCell id="5vBH3ztUi321Li3JuPsc-302" value="0.2" style="connectable=0;recursiveResize=0;align=center;whiteSpace=wrap;html=1;strokeColor=default;fontSize=15;" parent="5vBH3ztUi321Li3JuPsc-297" vertex="1">
          <mxGeometry x="363" width="94" height="46" as="geometry">
            <mxRectangle width="94" height="46" as="alternateBounds" />
          </mxGeometry>
        </mxCell>
        <mxCell id="5vBH3ztUi321Li3JuPsc-303" value="78" style="connectable=0;recursiveResize=0;align=center;whiteSpace=wrap;html=1;strokeColor=default;fontSize=15;" parent="5vBH3ztUi321Li3JuPsc-297" vertex="1">
          <mxGeometry x="457" width="71" height="46" as="geometry">
            <mxRectangle width="71" height="46" as="alternateBounds" />
          </mxGeometry>
        </mxCell>
        <mxCell id="5vBH3ztUi321Li3JuPsc-304" value="15.6" style="connectable=0;recursiveResize=0;align=center;whiteSpace=wrap;html=1;strokeColor=default;fontSize=15;" parent="5vBH3ztUi321Li3JuPsc-297" vertex="1">
          <mxGeometry x="528" width="71" height="46" as="geometry">
            <mxRectangle width="71" height="46" as="alternateBounds" />
          </mxGeometry>
        </mxCell>
        <mxCell id="5vBH3ztUi321Li3JuPsc-241" style="shape=tableRow;horizontal=0;startSize=0;swimlaneHead=0;swimlaneBody=0;top=0;left=0;bottom=0;right=0;dropTarget=0;collapsible=0;recursiveResize=0;expand=0;fontStyle=0;strokeColor=default;fontSize=15;" parent="5vBH3ztUi321Li3JuPsc-226" vertex="1">
          <mxGeometry y="152" width="599.2689999999998" height="46" as="geometry" />
        </mxCell>
        <mxCell id="5vBH3ztUi321Li3JuPsc-242" value="Screws&lt;div&gt;(B3.5x9.5/BN994)&lt;/div&gt;" style="connectable=0;recursiveResize=0;align=center;whiteSpace=wrap;html=1;strokeColor=default;fontSize=15;" parent="5vBH3ztUi321Li3JuPsc-241" vertex="1">
          <mxGeometry width="130" height="46" as="geometry">
            <mxRectangle width="130" height="46" as="alternateBounds" />
          </mxGeometry>
        </mxCell>
        <mxCell id="5vBH3ztUi321Li3JuPsc-256" value="Pieces" style="connectable=0;recursiveResize=0;align=center;whiteSpace=wrap;html=1;strokeColor=default;fontSize=15;" parent="5vBH3ztUi321Li3JuPsc-241" vertex="1">
          <mxGeometry x="130" width="61" height="46" as="geometry">
            <mxRectangle width="61" height="46" as="alternateBounds" />
          </mxGeometry>
        </mxCell>
        <mxCell id="5vBH3ztUi321Li3JuPsc-243" value="40" style="connectable=0;recursiveResize=0;align=center;whiteSpace=wrap;html=1;strokeColor=default;fontSize=15;" parent="5vBH3ztUi321Li3JuPsc-241" vertex="1">
          <mxGeometry x="191" width="78" height="46" as="geometry">
            <mxRectangle width="78" height="46" as="alternateBounds" />
          </mxGeometry>
        </mxCell>
        <mxCell id="5vBH3ztUi321Li3JuPsc-244" value="0.061" style="connectable=0;recursiveResize=0;align=center;whiteSpace=wrap;html=1;strokeColor=default;fontSize=15;" parent="5vBH3ztUi321Li3JuPsc-241" vertex="1">
          <mxGeometry x="269" width="94" height="46" as="geometry">
            <mxRectangle width="94" height="46" as="alternateBounds" />
          </mxGeometry>
        </mxCell>
        <mxCell id="5vBH3ztUi321Li3JuPsc-245" value="0.012" style="connectable=0;recursiveResize=0;align=center;whiteSpace=wrap;html=1;strokeColor=default;fontSize=15;" parent="5vBH3ztUi321Li3JuPsc-241" vertex="1">
          <mxGeometry x="363" width="94" height="46" as="geometry">
            <mxRectangle width="94" height="46" as="alternateBounds" />
          </mxGeometry>
        </mxCell>
        <mxCell id="5vBH3ztUi321Li3JuPsc-246" value="2.44" style="connectable=0;recursiveResize=0;align=center;whiteSpace=wrap;html=1;strokeColor=default;fontSize=15;" parent="5vBH3ztUi321Li3JuPsc-241" vertex="1">
          <mxGeometry x="457" width="71" height="46" as="geometry">
            <mxRectangle width="71" height="46" as="alternateBounds" />
          </mxGeometry>
        </mxCell>
        <mxCell id="5vBH3ztUi321Li3JuPsc-247" value="0.488" style="connectable=0;recursiveResize=0;align=center;whiteSpace=wrap;html=1;strokeColor=default;fontSize=15;" parent="5vBH3ztUi321Li3JuPsc-241" vertex="1">
          <mxGeometry x="528" width="71" height="46" as="geometry">
            <mxRectangle width="71" height="46" as="alternateBounds" />
          </mxGeometry>
        </mxCell>
        <mxCell id="5vBH3ztUi321Li3JuPsc-289" style="shape=tableRow;horizontal=0;startSize=0;swimlaneHead=0;swimlaneBody=0;top=0;left=0;bottom=0;right=0;dropTarget=0;collapsible=0;recursiveResize=0;expand=0;fontStyle=0;strokeColor=default;fontSize=15;" parent="5vBH3ztUi321Li3JuPsc-226" vertex="1">
          <mxGeometry y="198" width="599.2689999999998" height="46" as="geometry" />
        </mxCell>
        <mxCell id="5vBH3ztUi321Li3JuPsc-290" value="Screws&lt;div&gt;(B3.5x16/BN994)&lt;/div&gt;" style="connectable=0;recursiveResize=0;align=center;whiteSpace=wrap;html=1;strokeColor=default;fontSize=15;" parent="5vBH3ztUi321Li3JuPsc-289" vertex="1">
          <mxGeometry width="130" height="46" as="geometry">
            <mxRectangle width="130" height="46" as="alternateBounds" />
          </mxGeometry>
        </mxCell>
        <mxCell id="5vBH3ztUi321Li3JuPsc-291" value="Pieces" style="connectable=0;recursiveResize=0;align=center;whiteSpace=wrap;html=1;strokeColor=default;fontSize=15;" parent="5vBH3ztUi321Li3JuPsc-289" vertex="1">
          <mxGeometry x="130" width="61" height="46" as="geometry">
            <mxRectangle width="61" height="46" as="alternateBounds" />
          </mxGeometry>
        </mxCell>
        <mxCell id="5vBH3ztUi321Li3JuPsc-292" value="8" style="connectable=0;recursiveResize=0;align=center;whiteSpace=wrap;html=1;strokeColor=default;fontSize=15;" parent="5vBH3ztUi321Li3JuPsc-289" vertex="1">
          <mxGeometry x="191" width="78" height="46" as="geometry">
            <mxRectangle width="78" height="46" as="alternateBounds" />
          </mxGeometry>
        </mxCell>
        <mxCell id="5vBH3ztUi321Li3JuPsc-293" value="0.087" style="connectable=0;recursiveResize=0;align=center;whiteSpace=wrap;html=1;strokeColor=default;fontSize=15;" parent="5vBH3ztUi321Li3JuPsc-289" vertex="1">
          <mxGeometry x="269" width="94" height="46" as="geometry">
            <mxRectangle width="94" height="46" as="alternateBounds" />
          </mxGeometry>
        </mxCell>
        <mxCell id="5vBH3ztUi321Li3JuPsc-294" value="0.017" style="connectable=0;recursiveResize=0;align=center;whiteSpace=wrap;html=1;strokeColor=default;fontSize=15;" parent="5vBH3ztUi321Li3JuPsc-289" vertex="1">
          <mxGeometry x="363" width="94" height="46" as="geometry">
            <mxRectangle width="94" height="46" as="alternateBounds" />
          </mxGeometry>
        </mxCell>
        <mxCell id="5vBH3ztUi321Li3JuPsc-295" value="0.696" style="connectable=0;recursiveResize=0;align=center;whiteSpace=wrap;html=1;strokeColor=default;fontSize=15;" parent="5vBH3ztUi321Li3JuPsc-289" vertex="1">
          <mxGeometry x="457" width="71" height="46" as="geometry">
            <mxRectangle width="71" height="46" as="alternateBounds" />
          </mxGeometry>
        </mxCell>
        <mxCell id="5vBH3ztUi321Li3JuPsc-296" value="0.139" style="connectable=0;recursiveResize=0;align=center;whiteSpace=wrap;html=1;strokeColor=default;fontSize=15;" parent="5vBH3ztUi321Li3JuPsc-289" vertex="1">
          <mxGeometry x="528" width="71" height="46" as="geometry">
            <mxRectangle width="71" height="46" as="alternateBounds" />
          </mxGeometry>
        </mxCell>
        <mxCell id="5vBH3ztUi321Li3JuPsc-281" style="shape=tableRow;horizontal=0;startSize=0;swimlaneHead=0;swimlaneBody=0;top=0;left=0;bottom=0;right=0;dropTarget=0;collapsible=0;recursiveResize=0;expand=0;fontStyle=0;strokeColor=default;fontSize=15;" parent="5vBH3ztUi321Li3JuPsc-226" vertex="1">
          <mxGeometry y="244" width="599.2689999999998" height="46" as="geometry" />
        </mxCell>
        <mxCell id="5vBH3ztUi321Li3JuPsc-282" value="Screws&lt;div&gt;(B2.9x4.5/BN994)&lt;/div&gt;" style="connectable=0;recursiveResize=0;align=center;whiteSpace=wrap;html=1;strokeColor=default;fontSize=15;" parent="5vBH3ztUi321Li3JuPsc-281" vertex="1">
          <mxGeometry width="130" height="46" as="geometry">
            <mxRectangle width="130" height="46" as="alternateBounds" />
          </mxGeometry>
        </mxCell>
        <mxCell id="5vBH3ztUi321Li3JuPsc-283" value="Pieces" style="connectable=0;recursiveResize=0;align=center;whiteSpace=wrap;html=1;strokeColor=default;fontSize=15;" parent="5vBH3ztUi321Li3JuPsc-281" vertex="1">
          <mxGeometry x="130" width="61" height="46" as="geometry">
            <mxRectangle width="61" height="46" as="alternateBounds" />
          </mxGeometry>
        </mxCell>
        <mxCell id="5vBH3ztUi321Li3JuPsc-284" value="4" style="connectable=0;recursiveResize=0;align=center;whiteSpace=wrap;html=1;strokeColor=default;fontSize=15;" parent="5vBH3ztUi321Li3JuPsc-281" vertex="1">
          <mxGeometry x="191" width="78" height="46" as="geometry">
            <mxRectangle width="78" height="46" as="alternateBounds" />
          </mxGeometry>
        </mxCell>
        <mxCell id="5vBH3ztUi321Li3JuPsc-285" value="0.083" style="connectable=0;recursiveResize=0;align=center;whiteSpace=wrap;html=1;strokeColor=default;fontSize=15;" parent="5vBH3ztUi321Li3JuPsc-281" vertex="1">
          <mxGeometry x="269" width="94" height="46" as="geometry">
            <mxRectangle width="94" height="46" as="alternateBounds" />
          </mxGeometry>
        </mxCell>
        <mxCell id="5vBH3ztUi321Li3JuPsc-286" value="0.016" style="connectable=0;recursiveResize=0;align=center;whiteSpace=wrap;html=1;strokeColor=default;fontSize=15;" parent="5vBH3ztUi321Li3JuPsc-281" vertex="1">
          <mxGeometry x="363" width="94" height="46" as="geometry">
            <mxRectangle width="94" height="46" as="alternateBounds" />
          </mxGeometry>
        </mxCell>
        <mxCell id="5vBH3ztUi321Li3JuPsc-287" value="0.332" style="connectable=0;recursiveResize=0;align=center;whiteSpace=wrap;html=1;strokeColor=default;fontSize=15;" parent="5vBH3ztUi321Li3JuPsc-281" vertex="1">
          <mxGeometry x="457" width="71" height="46" as="geometry">
            <mxRectangle width="71" height="46" as="alternateBounds" />
          </mxGeometry>
        </mxCell>
        <mxCell id="5vBH3ztUi321Li3JuPsc-288" value="0.064" style="connectable=0;recursiveResize=0;align=center;whiteSpace=wrap;html=1;strokeColor=default;fontSize=15;" parent="5vBH3ztUi321Li3JuPsc-281" vertex="1">
          <mxGeometry x="528" width="71" height="46" as="geometry">
            <mxRectangle width="71" height="46" as="alternateBounds" />
          </mxGeometry>
        </mxCell>
        <mxCell id="5vBH3ztUi321Li3JuPsc-257" style="shape=tableRow;horizontal=0;startSize=0;swimlaneHead=0;swimlaneBody=0;top=0;left=0;bottom=0;right=0;dropTarget=0;collapsible=0;recursiveResize=0;expand=0;fontStyle=0;strokeColor=default;fontSize=15;" parent="5vBH3ztUi321Li3JuPsc-226" vertex="1">
          <mxGeometry y="290" width="599.2689999999998" height="46" as="geometry" />
        </mxCell>
        <mxCell id="5vBH3ztUi321Li3JuPsc-258" value="Wire (22 AWG)" style="connectable=0;recursiveResize=0;align=center;whiteSpace=wrap;html=1;strokeColor=default;fontSize=15;" parent="5vBH3ztUi321Li3JuPsc-257" vertex="1">
          <mxGeometry width="130" height="46" as="geometry">
            <mxRectangle width="130" height="46" as="alternateBounds" />
          </mxGeometry>
        </mxCell>
        <mxCell id="5vBH3ztUi321Li3JuPsc-259" value="Meters" style="connectable=0;recursiveResize=0;align=center;whiteSpace=wrap;html=1;strokeColor=default;fontSize=15;" parent="5vBH3ztUi321Li3JuPsc-257" vertex="1">
          <mxGeometry x="130" width="61" height="46" as="geometry">
            <mxRectangle width="61" height="46" as="alternateBounds" />
          </mxGeometry>
        </mxCell>
        <mxCell id="5vBH3ztUi321Li3JuPsc-260" value="1" style="connectable=0;recursiveResize=0;align=center;whiteSpace=wrap;html=1;strokeColor=default;fontSize=15;" parent="5vBH3ztUi321Li3JuPsc-257" vertex="1">
          <mxGeometry x="191" width="78" height="46" as="geometry">
            <mxRectangle width="78" height="46" as="alternateBounds" />
          </mxGeometry>
        </mxCell>
        <mxCell id="5vBH3ztUi321Li3JuPsc-261" value="1.43" style="connectable=0;recursiveResize=0;align=center;whiteSpace=wrap;html=1;strokeColor=default;fontSize=15;" parent="5vBH3ztUi321Li3JuPsc-257" vertex="1">
          <mxGeometry x="269" width="94" height="46" as="geometry">
            <mxRectangle width="94" height="46" as="alternateBounds" />
          </mxGeometry>
        </mxCell>
        <mxCell id="5vBH3ztUi321Li3JuPsc-262" value="0.286" style="connectable=0;recursiveResize=0;align=center;whiteSpace=wrap;html=1;strokeColor=default;fontSize=15;" parent="5vBH3ztUi321Li3JuPsc-257" vertex="1">
          <mxGeometry x="363" width="94" height="46" as="geometry">
            <mxRectangle width="94" height="46" as="alternateBounds" />
          </mxGeometry>
        </mxCell>
        <mxCell id="5vBH3ztUi321Li3JuPsc-263" value="1.43" style="connectable=0;recursiveResize=0;align=center;whiteSpace=wrap;html=1;strokeColor=default;fontSize=15;" parent="5vBH3ztUi321Li3JuPsc-257" vertex="1">
          <mxGeometry x="457" width="71" height="46" as="geometry">
            <mxRectangle width="71" height="46" as="alternateBounds" />
          </mxGeometry>
        </mxCell>
        <mxCell id="5vBH3ztUi321Li3JuPsc-264" value="0.286" style="connectable=0;recursiveResize=0;align=center;whiteSpace=wrap;html=1;strokeColor=default;fontSize=15;" parent="5vBH3ztUi321Li3JuPsc-257" vertex="1">
          <mxGeometry x="528" width="71" height="46" as="geometry">
            <mxRectangle width="71" height="46" as="alternateBounds" />
          </mxGeometry>
        </mxCell>
      </root>
    </mxGraphModel>
  </diagram>
</mxfile>
